<svg width="34" height="34" viewBox="0 0 34 34" fill="none" xmlns="http://www.w3.org/2000/svg">
<path d="M6.48235 23.5116L6.85161 24.9106C7.31933 26.7295 8.34095 27.6622 10.3719 27.6622H23.6281C25.6714 27.6622 26.6807 26.7527 27.1607 24.9106L27.53 23.5116H6.48235ZM6.07617 21.9142H27.9484L30.2624 12.9369L29.2532 12.3889L23.579 16.3063C23.1604 16.5862 22.8773 16.4812 22.6434 16.1664L17.3016 8.5181L16.7107 8.49478L11.3196 16.2013C11.1104 16.5045 10.8642 16.5978 10.4457 16.3179L4.88224 12.4705L3.70062 12.762L6.07617 21.9142ZM4.15604 15.2686C5.78077 15.2686 7.08547 14.0211 7.08547 12.4705C7.08547 10.9548 5.78077 9.69566 4.15604 9.69566C2.53131 9.69566 1.21429 10.9432 1.21429 12.4705C1.21429 14.0211 2.54361 15.2686 4.15604 15.2686ZM17.0062 10.4185C18.6186 10.4185 19.9356 9.17101 19.9356 7.63201C19.9356 6.11634 18.6186 4.85718 17.0062 4.85718C15.3692 4.85718 14.0644 6.10469 14.0644 7.63201C14.0644 9.17101 15.3815 10.4185 17.0062 10.4185ZM29.844 15.2686C31.4564 15.2686 32.7857 14.0211 32.7857 12.4705C32.7857 10.9432 31.4687 9.69566 29.844 9.69566C28.2316 9.69566 26.9146 10.9548 26.9146 12.4705C26.9146 14.0211 28.2316 15.2686 29.844 15.2686Z" fill="#262626"/>
</svg>
