<svg width="20" height="20" viewBox="0 0 20 20" fill="none" xmlns="http://www.w3.org/2000/svg">
<path d="M8.60803 1.9429C9.38072 0.62493 11.286 0.624932 12.0587 1.9429L13.7846 4.88664C14.0665 5.36761 14.5365 5.70904 15.081 5.8286L18.414 6.5603C19.9063 6.8879 20.495 8.69996 19.4804 9.8421L17.214 12.3931C16.8437 12.8099 16.6642 13.3624 16.7188 13.9173L17.0528 17.3132C17.2024 18.8337 15.661 19.9536 14.2612 19.3415L11.1346 17.9744C10.6238 17.751 10.0429 17.751 9.5321 17.9744L6.40557 19.3415C5.00577 19.9536 3.46435 18.8337 3.61391 17.3132L3.94796 13.9173C4.00254 13.3624 3.82304 12.8099 3.45275 12.3931L1.1864 9.8421C0.17171 8.69995 0.760485 6.8879 2.25272 6.5603L5.5857 5.8286C6.13026 5.70904 6.60021 5.36761 6.88219 4.88664L8.60803 1.9429Z" fill="#FF8D4D"/>
</svg>
