<svg width="137" height="17" viewBox="0 0 137 17" fill="none" xmlns="http://www.w3.org/2000/svg">
<path d="M0.646622 16.5V1.33336H3.13829V16.5H0.646622ZM2.35829 16.5V14.225H10.2883V16.5H2.35829Z" fill="#262626"/>
<path d="M12.2557 16.5V6.10003H14.6391V16.5H12.2557ZM13.4474 4.19336C13.0429 4.19336 12.7035 4.05614 12.4291 3.78169C12.1691 3.50725 12.0391 3.1678 12.0391 2.76336C12.0391 2.35891 12.1691 2.01947 12.4291 1.74502C12.7035 1.47058 13.0429 1.33336 13.4474 1.33336C13.8663 1.33336 14.2057 1.47058 14.4657 1.74502C14.7257 2.01947 14.8557 2.35891 14.8557 2.76336C14.8557 3.1678 14.7257 3.50725 14.4657 3.78169C14.2057 4.05614 13.8663 4.19336 13.4474 4.19336Z" fill="#262626"/>
<path d="M18.8938 16.5V1.76669H21.2772V16.5H18.8938ZM16.4022 8.26669V6.10003H30.0522V8.26669H16.4022ZM25.1772 16.5V1.76669H27.5605V16.5H25.1772Z" fill="#262626"/>
<path d="M31.7848 16.5V0.900024H34.1682V16.5H31.7848Z" fill="#262626"/>
<path d="M41.6523 16.7167C40.6123 16.7167 39.6734 16.4856 38.8356 16.0234C38.0123 15.5467 37.3551 14.8967 36.864 14.0734C36.3873 13.25 36.149 12.3256 36.149 11.3C36.149 10.2745 36.3873 9.35725 36.864 8.54836C37.3406 7.72503 37.9834 7.07503 38.7923 6.59836C39.6156 6.12169 40.5256 5.88336 41.5223 5.88336C42.4901 5.88336 43.3423 6.10725 44.079 6.55503C44.8301 7.0028 45.4151 7.61669 45.834 8.39669C46.2673 9.17669 46.484 10.065 46.484 11.0617C46.484 11.235 46.4695 11.4156 46.4406 11.6034C46.4262 11.7767 46.3973 11.9717 46.354 12.1884H37.8173V10.2384H45.119L44.2306 11.0184C44.2018 10.3828 44.079 9.84836 43.8623 9.41502C43.6456 8.98169 43.3351 8.64947 42.9306 8.41836C42.5406 8.18725 42.0568 8.07169 41.479 8.07169C40.8723 8.07169 40.3451 8.20169 39.8973 8.46169C39.4495 8.72169 39.1029 9.09003 38.8573 9.56669C38.6118 10.0289 38.489 10.585 38.489 11.235C38.489 11.885 38.619 12.4556 38.879 12.9467C39.139 13.4378 39.5073 13.8206 39.984 14.095C40.4606 14.355 41.0095 14.485 41.6306 14.485C42.1651 14.485 42.6562 14.3911 43.104 14.2034C43.5662 14.0156 43.9562 13.7411 44.274 13.38L45.7906 14.9184C45.2851 15.5106 44.6712 15.9584 43.949 16.2617C43.2268 16.565 42.4612 16.7167 41.6523 16.7167Z" fill="#262626"/>
<path d="M53.0571 16.5V1.33336H55.5488V16.5H53.0571ZM54.7688 16.5V14.225H62.6988V16.5H54.7688Z" fill="#262626"/>
<path d="M69.1165 16.7167C68.0765 16.7167 67.1376 16.4856 66.2998 16.0234C65.4765 15.5467 64.8193 14.8967 64.3282 14.0734C63.8515 13.25 63.6132 12.3256 63.6132 11.3C63.6132 10.2745 63.8515 9.35725 64.3282 8.54836C64.8048 7.72503 65.4476 7.07503 66.2565 6.59836C67.0798 6.12169 67.9898 5.88336 68.9865 5.88336C69.9543 5.88336 70.8065 6.10725 71.5432 6.55503C72.2943 7.0028 72.8793 7.61669 73.2982 8.39669C73.7315 9.17669 73.9482 10.065 73.9482 11.0617C73.9482 11.235 73.9337 11.4156 73.9048 11.6034C73.8904 11.7767 73.8615 11.9717 73.8182 12.1884H65.2815V10.2384H72.5832L71.6948 11.0184C71.666 10.3828 71.5432 9.84836 71.3265 9.41502C71.1098 8.98169 70.7993 8.64947 70.3948 8.41836C70.0048 8.18725 69.521 8.07169 68.9432 8.07169C68.3365 8.07169 67.8093 8.20169 67.3615 8.46169C66.9137 8.72169 66.5671 9.09003 66.3215 9.56669C66.076 10.0289 65.9532 10.585 65.9532 11.235C65.9532 11.885 66.0832 12.4556 66.3432 12.9467C66.6032 13.4378 66.9715 13.8206 67.4482 14.095C67.9248 14.355 68.4737 14.485 69.0948 14.485C69.6293 14.485 70.1204 14.3911 70.5682 14.2034C71.0304 14.0156 71.4204 13.7411 71.7382 13.38L73.2548 14.9184C72.7493 15.5106 72.1354 15.9584 71.4132 16.2617C70.691 16.565 69.9254 16.7167 69.1165 16.7167Z" fill="#262626"/>
<path d="M80.2137 16.7167C79.2748 16.7167 78.4226 16.4784 77.6571 16.0017C76.906 15.525 76.3065 14.8822 75.8587 14.0734C75.4254 13.25 75.2087 12.3328 75.2087 11.3217C75.2087 10.2961 75.4254 9.37891 75.8587 8.57002C76.3065 7.74669 76.906 7.09669 77.6571 6.62002C78.4226 6.12891 79.2748 5.88336 80.2137 5.88336C81.0082 5.88336 81.7087 6.05669 82.3154 6.40336C82.9365 6.73558 83.4276 7.1978 83.7887 7.79003C84.1498 8.38225 84.3304 9.05391 84.3304 9.80503V12.795C84.3304 13.5461 84.1498 14.2178 83.7887 14.81C83.4421 15.4022 82.9582 15.8717 82.3371 16.2184C81.716 16.5506 81.0082 16.7167 80.2137 16.7167ZM80.6037 14.4634C81.4848 14.4634 82.1926 14.1672 82.7271 13.575C83.276 12.9828 83.5504 12.2245 83.5504 11.3C83.5504 10.6789 83.4276 10.13 83.1821 9.65336C82.9365 9.17669 82.5899 8.80836 82.1421 8.54836C81.7087 8.27391 81.196 8.13669 80.6037 8.13669C80.026 8.13669 79.5132 8.27391 79.0654 8.54836C78.6321 8.80836 78.2854 9.17669 78.0254 9.65336C77.7798 10.13 77.6571 10.6789 77.6571 11.3C77.6571 11.9211 77.7798 12.47 78.0254 12.9467C78.2854 13.4234 78.6321 13.7989 79.0654 14.0734C79.5132 14.3334 80.026 14.4634 80.6037 14.4634ZM83.3987 16.5V13.705L83.8104 11.17L83.3987 8.65669V6.10003H85.7821V16.5H83.3987Z" fill="#262626"/>
<path d="M88.4271 16.5V6.10003H90.8104V16.5H88.4271ZM90.8104 10.715L89.9871 10.3034C89.9871 8.98891 90.276 7.92725 90.8538 7.11836C91.446 6.29502 92.3343 5.88336 93.5188 5.88336C94.0388 5.88336 94.5082 5.97725 94.9271 6.16502C95.346 6.3528 95.736 6.65614 96.0971 7.07502L94.5371 8.67836C94.3493 8.47614 94.1399 8.33169 93.9088 8.24503C93.6777 8.15836 93.4104 8.11503 93.1071 8.11503C92.4427 8.11503 91.8938 8.32447 91.4604 8.74336C91.0271 9.16225 90.8104 9.81947 90.8104 10.715Z" fill="#262626"/>
<path d="M104.379 16.5V10.4984C104.379 9.80503 104.155 9.23447 103.707 8.78669C103.274 8.33891 102.71 8.11503 102.017 8.11503C101.555 8.11503 101.143 8.21614 100.782 8.41836C100.421 8.62058 100.139 8.90225 99.937 9.26336C99.7348 9.62447 99.6337 10.0361 99.6337 10.4984L98.702 9.97836C98.702 9.18391 98.8753 8.48336 99.222 7.87669C99.5687 7.25558 100.045 6.77169 100.652 6.42502C101.273 6.06391 101.966 5.88336 102.732 5.88336C103.512 5.88336 104.205 6.08558 104.812 6.49002C105.419 6.88002 105.895 7.3928 106.242 8.02836C106.589 8.64947 106.762 9.29947 106.762 9.97836V16.5H104.379ZM97.2503 16.5V6.10003H99.6337V16.5H97.2503Z" fill="#262626"/>
<path d="M114.016 16.7167C112.976 16.7167 112.037 16.4856 111.199 16.0234C110.376 15.5467 109.718 14.8967 109.227 14.0734C108.751 13.25 108.512 12.3256 108.512 11.3C108.512 10.2745 108.751 9.35725 109.227 8.54836C109.704 7.72503 110.347 7.07503 111.156 6.59836C111.979 6.12169 112.889 5.88336 113.886 5.88336C114.853 5.88336 115.706 6.10725 116.442 6.55503C117.193 7.0028 117.778 7.61669 118.197 8.39669C118.631 9.17669 118.847 10.065 118.847 11.0617C118.847 11.235 118.833 11.4156 118.804 11.6034C118.789 11.7767 118.761 11.9717 118.717 12.1884H110.181V10.2384H117.482L116.594 11.0184C116.565 10.3828 116.442 9.84836 116.226 9.41502C116.009 8.98169 115.698 8.64947 115.294 8.41836C114.904 8.18725 114.42 8.07169 113.842 8.07169C113.236 8.07169 112.708 8.20169 112.261 8.46169C111.813 8.72169 111.466 9.09003 111.221 9.56669C110.975 10.0289 110.852 10.585 110.852 11.235C110.852 11.885 110.982 12.4556 111.242 12.9467C111.502 13.4378 111.871 13.8206 112.347 14.095C112.824 14.355 113.373 14.485 113.994 14.485C114.528 14.485 115.019 14.3911 115.467 14.2034C115.929 14.0156 116.319 13.7411 116.637 13.38L118.154 14.9184C117.648 15.5106 117.034 15.9584 116.312 16.2617C115.59 16.565 114.824 16.7167 114.016 16.7167Z" fill="#262626"/>
<path d="M120.758 16.5V6.10003H123.141V16.5H120.758ZM123.141 10.715L122.318 10.3034C122.318 8.98891 122.607 7.92725 123.184 7.11836C123.777 6.29502 124.665 5.88336 125.849 5.88336C126.369 5.88336 126.839 5.97725 127.258 6.16502C127.677 6.3528 128.067 6.65614 128.428 7.07502L126.868 8.67836C126.68 8.47614 126.471 8.33169 126.239 8.24503C126.008 8.15836 125.741 8.11503 125.438 8.11503C124.773 8.11503 124.224 8.32447 123.791 8.74336C123.358 9.16225 123.141 9.81947 123.141 10.715Z" fill="#262626"/>
<path d="M132.75 16.7167C132.172 16.7167 131.616 16.6445 131.082 16.5C130.547 16.3411 130.056 16.1245 129.608 15.85C129.161 15.5611 128.771 15.2145 128.438 14.81L129.955 13.2934C130.316 13.7122 130.728 14.03 131.19 14.2467C131.667 14.4489 132.201 14.55 132.793 14.55C133.328 14.55 133.732 14.4706 134.007 14.3117C134.281 14.1528 134.418 13.9217 134.418 13.6184C134.418 13.3006 134.288 13.055 134.028 12.8817C133.768 12.7084 133.429 12.5639 133.01 12.4484C132.606 12.3184 132.172 12.1884 131.71 12.0584C131.262 11.9284 130.829 11.755 130.41 11.5384C130.006 11.3072 129.673 10.9967 129.413 10.6067C129.153 10.2167 129.023 9.71114 129.023 9.09002C129.023 8.42558 129.175 7.85502 129.478 7.37836C129.796 6.90169 130.237 6.53336 130.8 6.27336C131.378 6.01336 132.064 5.88336 132.858 5.88336C133.696 5.88336 134.433 6.03503 135.068 6.33836C135.718 6.62725 136.26 7.0678 136.693 7.66003L135.177 9.17669C134.873 8.80114 134.527 8.51947 134.137 8.33169C133.747 8.14391 133.299 8.05002 132.793 8.05002C132.317 8.05002 131.948 8.12225 131.688 8.26669C131.428 8.41114 131.298 8.62058 131.298 8.89503C131.298 9.18391 131.428 9.4078 131.688 9.56669C131.948 9.72558 132.281 9.8628 132.685 9.97836C133.104 10.0939 133.537 10.2239 133.985 10.3684C134.447 10.4984 134.881 10.6861 135.285 10.9317C135.704 11.1628 136.043 11.4806 136.303 11.885C136.563 12.275 136.693 12.7878 136.693 13.4234C136.693 14.4345 136.339 15.2361 135.632 15.8284C134.924 16.4206 133.963 16.7167 132.75 16.7167Z" fill="#262626"/>
</svg>
